{"title":"[MARATHI] Duniyadari - Tik Tik vajate [BHOR-KBC] 1080p","uid":8761724,"size":60957835,"categoryP":"video","categoryS":"music_videos","magnet":"?xt=urn:btih:22475953c53454c54806f18627c5d696b32346d4&amp;dn=%5BMARATHI%5D+Duniyadari+-+Tik+Tik+vajate+%5BBHOR-KBC%5D+1080p&amp;tr=udp%3A%2F%2Ftracker.openbittorrent.com%3A80&amp;tr=udp%3A%2F%2Fopen.demonii.com%3A1337&amp;tr=udp%3A%2F%2Ftracker.coppersurfer.tk%3A6969&amp;tr=udp%3A%2F%2Fexodus.desync.com%3A6969","seeders":1,"leechers":0,"uploader":"hdbrazzer","files":1,"time":1375256303,"description":"Duniydari 2013 marathi Movie\n\nVideo\nID                                       : 1\nFormat                                   : AVC\nFormat/Info                              : Advanced Video Codec\nFormat profile                           : &lt;a class=&quot;__cf_email__&quot; href=&quot;/cdn-cgi/l/email-protection&quot; data-cfemail=&quot;642c0d030c2428504a54&quot;&gt;[email&amp;#160;protected]&lt;/a&gt;&lt;script cf-hash='f9e31' type=&quot;text/javascript&quot;&gt;\n/* &lt;![CDATA[ */!function(){try{var t=&quot;currentScript&quot;in document?document.currentScript:function(){for(var t=document.getElementsByTagName(&quot;script&quot;),e=t.length;e--;)if(t[e].getAttribute(&quot;cf-hash&quot;))return t[e]}();if(t&amp;&amp;t.previousSibling){var e,r,n,i,c=t.previousSibling,a=c.getAttribute(&quot;data-cfemail&quot;);if(a){for(e=&quot;&quot;,r=parseInt(a.substr(0,2),16),n=2;a.length-n;n+=2)i=parseInt(a.substr(n,2),16)^r,e+=String.fromCharCode(i);e=document.createTextNode(e),c.parentNode.replaceChild(e,c)}}}catch(u){}}();/* ]]&gt; */&lt;/script&gt;\nFormat settings, CABAC                   : Yes\nFormat settings, ReFrames                : 1 frame\nCodec ID                                 : avc1\nCodec ID/Info                            : Advanced Video Coding\nDuration                                 : 2mn 19s\nBit rate                                 : 3 294 Kbps\nMaximum bit rate                         : 6 835 Kbps\nWidth                                    : 1 920 pixels\nHeight                                   : 1 080 pixels\nDisplay aspect ratio                     : 16:9\nFrame rate mode                          : Constant\nFrame rate                               : 25.000 fps\nColor space                              : YUV\nChroma subsampling                       : 4:2:0\nBit depth                                : 8 bits\nScan type                                : Progressive\nBits/(Pixel*Frame)                       : 0.064\nStream size                              : 54.9 MiB (94%)\nTagged date                              : UTC 2013-05-29 06:55:09\n\nAudio\nID                                       : 2\nFormat                                   : AAC\nFormat/Info                              : Advanced Audio Codec\nFormat profile                           : LC\nCodec ID                                 : 40\nDuration                                 : 2mn 19s\nBit rate mode                            : Variable\nBit rate                                 : 192 Kbps\nMaximum bit rate                         : 202 Kbps\nChannel(s)                               : 2 channels\nChannel positions                        : Front: L R\nSampling rate                            : 44.1 KHz\nCompression mode                         : Lossy\nStream size                              : 3.20 MiB (6%)\n\n\nScreens: &lt;a href=&quot;\nhttp://s10.postimg.org/optfkvmxl/vlcsnap_2013_07_31_10h42m18s237.png&quot; rel=&quot;nofollow&quot; target=&quot;_NEW&quot;&gt;\nhttp://s10.postimg.org/optfkvmxl/vlcsnap_2013_07_31_10h42m18s237.png&lt;/a&gt; &lt;a href=&quot;\nhttp://s18.postimg.org/oxs097syh/vlcsnap_2013_07_31_10h42m44s252.png&quot; rel=&quot;nofollow&quot; target=&quot;_NEW&quot;&gt;\nhttp://s18.postimg.org/oxs097syh/vlcsnap_2013_07_31_10h42m44s252.png&lt;/a&gt; &lt;a href=&quot;\nhttp://s18.postimg.org/nfomy2bmh/vlcsnap_2013_07_31_10h43m42s60.png&quot; rel=&quot;nofollow&quot; target=&quot;_NEW&quot;&gt;\nhttp://s18.postimg.org/nfomy2bmh/vlcsnap_2013_07_31_10h43m42s60.png&lt;/a&gt; &lt;a href=&quot;\nhttp://s23.postimg.org/bdneqnw5n/vlcsnap_2013_07_31_10h43m48s74.png&quot; rel=&quot;nofollow&quot; target=&quot;_NEW&quot;&gt;\nhttp://s23.postimg.org/bdneqnw5n/vlcsnap_2013_07_31_10h43m48s74.png&lt;/a&gt; &lt;a href=&quot;\nhttp://s22.postimg.org/tla39lmz5/vlcsnap_2013_07_31_10h44m05s40.png&quot; rel=&quot;nofollow&quot; target=&quot;_NEW&quot;&gt;\nhttp://s22.postimg.org/tla39lmz5/vlcsnap_2013_07_31_10h44m05s40.png&lt;/a&gt;\n","torrent":{"xt":"urn:btih:22475953c53454c54806f18627c5d696b32346d4","amp;dn":"%5BMARATHI%5D+Duniyadari+-+Tik+Tik+vajate+%5BBHOR-KBC%5D+1080p","amp;tr":["udp%3A%2F%2Ftracker.openbittorrent.com%3A80","udp%3A%2F%2Fopen.demonii.com%3A1337","udp%3A%2F%2Ftracker.coppersurfer.tk%3A6969","udp%3A%2F%2Fexodus.desync.com%3A6969"],"infoHash":"22475953c53454c54806f18627c5d696b32346d4","infoHashBuffer":{"type":"Buffer","data":[34,71,89,83,197,52,84,197,72,6,241,134,39,197,214,150,179,35,70,212]},"announce":[],"urlList":[]}}